<svg width="42" height="42" viewBox="0 0 42 42" fill="none" xmlns="http://www.w3.org/2000/svg">
<g clip-path="url(#clip0_346_277)">
<path d="M6.5625 0C5.17011 0 3.83476 0.553123 2.85019 1.53769C1.86562 2.52226 1.3125 3.85761 1.3125 5.25V36.75C1.3125 38.1424 1.86562 39.4777 2.85019 40.4623C3.83476 41.4469 5.17011 42 6.5625 42H35.4375C36.8299 42 38.1652 41.4469 39.1498 40.4623C40.1344 39.4777 40.6875 38.1424 40.6875 36.75V5.25C40.6875 3.85761 40.1344 2.52226 39.1498 1.53769C38.1652 0.553123 36.8299 0 35.4375 0L6.5625 0ZM19.6875 5.25H22.3125C23.0087 5.25 23.6764 5.52656 24.1687 6.01884C24.6609 6.51113 24.9375 7.17881 24.9375 7.875V15.75C24.9375 16.4462 24.6609 17.1139 24.1687 17.6062C23.6764 18.0984 23.0087 18.375 22.3125 18.375H19.6875C18.9913 18.375 18.3236 18.0984 17.8313 17.6062C17.3391 17.1139 17.0625 16.4462 17.0625 15.75V7.875C17.0625 7.17881 17.3391 6.51113 17.8313 6.01884C18.3236 5.52656 18.9913 5.25 19.6875 5.25ZM6.5625 7.875C6.5625 7.17881 6.83906 6.51113 7.33134 6.01884C7.82363 5.52656 8.49131 5.25 9.1875 5.25H11.8125C12.5087 5.25 13.1764 5.52656 13.6687 6.01884C14.1609 6.51113 14.4375 7.17881 14.4375 7.875V26.25C14.4375 26.9462 14.1609 27.6139 13.6687 28.1062C13.1764 28.5984 12.5087 28.875 11.8125 28.875H9.1875C8.49131 28.875 7.82363 28.5984 7.33134 28.1062C6.83906 27.6139 6.5625 26.9462 6.5625 26.25V7.875ZM30.1875 5.25H32.8125C33.5087 5.25 34.1764 5.52656 34.6687 6.01884C35.1609 6.51113 35.4375 7.17881 35.4375 7.875V34.125C35.4375 34.8212 35.1609 35.4889 34.6687 35.9812C34.1764 36.4734 33.5087 36.75 32.8125 36.75H30.1875C29.4913 36.75 28.8236 36.4734 28.3313 35.9812C27.8391 35.4889 27.5625 34.8212 27.5625 34.125V7.875C27.5625 7.17881 27.8391 6.51113 28.3313 6.01884C28.8236 5.52656 29.4913 5.25 30.1875 5.25Z" fill="#7A33CC"/>
</g>
<defs>
<clipPath id="clip0_346_277">
<rect width="42" height="42" fill="white"/>
</clipPath>
</defs>
</svg>
